<svg width="37" height="38" viewBox="0 0 37 38" fill="none" xmlns="http://www.w3.org/2000/svg">
<path fill-rule="evenodd" clip-rule="evenodd" d="M10.9417 0.776992C12.8967 0.686992 13.5201 0.666992 18.5001 0.666992C23.4801 0.666992 24.1034 0.688659 26.0567 0.776992C28.0101 0.865325 29.3434 1.17699 30.5101 1.62866C31.7317 2.09033 32.8401 2.81199 33.7567 3.74533C34.6901 4.66032 35.4101 5.76699 35.8701 6.99033C36.3234 8.15699 36.6334 9.49033 36.7234 11.4403C36.8134 13.3987 36.8334 14.022 36.8334 19.0003C36.8334 23.9803 36.8117 24.6037 36.7234 26.5587C36.6351 28.5087 36.3234 29.842 35.8701 31.0087C35.4101 32.2321 34.6889 33.3407 33.7567 34.257C32.8401 35.1903 31.7317 35.9103 30.5101 36.3703C29.3434 36.8237 28.0101 37.1337 26.0601 37.2237C24.1034 37.3137 23.4801 37.3337 18.5001 37.3337C13.5201 37.3337 12.8967 37.312 10.9417 37.2237C8.99175 37.1353 7.65841 36.8237 6.49175 36.3703C5.26828 35.9103 4.15978 35.1891 3.24341 34.257C2.31071 33.3414 1.58894 32.2335 1.12841 31.0103C0.676748 29.8437 0.366748 28.5103 0.276748 26.5603C0.186748 24.602 0.166748 23.9787 0.166748 19.0003C0.166748 14.0203 0.188415 13.397 0.276748 11.4437C0.365081 9.49032 0.676748 8.15699 1.12841 6.99033C1.58962 5.76713 2.31195 4.65918 3.24508 3.74366C4.16015 2.81116 5.26753 2.0894 6.49008 1.62866C7.65675 1.17699 8.99008 0.866992 10.9401 0.776992H10.9417ZM25.9084 4.07699C23.9751 3.98866 23.3951 3.97033 18.5001 3.97033C13.6051 3.97033 13.0251 3.98866 11.0917 4.07699C9.30341 4.15866 8.33341 4.45699 7.68675 4.70866C6.83175 5.04199 6.22008 5.43699 5.57841 6.07866C4.97016 6.67041 4.50205 7.3908 4.20841 8.18699C3.95675 8.83366 3.65841 9.80366 3.57675 11.592C3.48841 13.5253 3.47008 14.1053 3.47008 19.0003C3.47008 23.8953 3.48841 24.4753 3.57675 26.4087C3.65841 28.197 3.95675 29.167 4.20841 29.8137C4.50175 30.6087 4.97008 31.3303 5.57841 31.922C6.17008 32.5303 6.89175 32.9987 7.68675 33.292C8.33341 33.5437 9.30341 33.842 11.0917 33.9237C13.0251 34.012 13.6034 34.0303 18.5001 34.0303C23.3967 34.0303 23.9751 34.012 25.9084 33.9237C27.6967 33.842 28.6667 33.5437 29.3134 33.292C30.1684 32.9587 30.7801 32.5637 31.4217 31.922C32.0301 31.3303 32.4984 30.6087 32.7917 29.8137C33.0434 29.167 33.3417 28.197 33.4234 26.4087C33.5117 24.4753 33.5301 23.8953 33.5301 19.0003C33.5301 14.1053 33.5117 13.5253 33.4234 11.592C33.3417 9.80366 33.0434 8.83366 32.7917 8.18699C32.4584 7.33199 32.0634 6.72033 31.4217 6.07866C30.83 5.47044 30.1096 5.00234 29.3134 4.70866C28.6667 4.45699 27.6967 4.15866 25.9084 4.07699V4.07699ZM16.1584 24.652C17.4662 25.1964 18.9224 25.2698 20.2783 24.8599C21.6342 24.4499 22.8057 23.5819 23.5928 22.4041C24.3798 21.2263 24.7335 19.8118 24.5935 18.4022C24.4535 16.9926 23.8284 15.6753 22.8251 14.6753C22.1855 14.0361 21.4121 13.5467 20.5606 13.2422C19.7092 12.9378 18.8008 12.8259 17.9009 12.9147C17.001 13.0034 16.132 13.2906 15.3564 13.7555C14.5808 14.2205 13.918 14.8516 13.4156 15.6034C12.9132 16.3553 12.5837 17.2091 12.4509 18.1036C12.3182 18.998 12.3853 19.9108 12.6476 20.7762C12.91 21.6416 13.3609 22.438 13.9679 23.1082C14.575 23.7784 15.3231 24.3056 16.1584 24.652ZM11.8367 12.337C12.7118 11.4619 13.7506 10.7678 14.8939 10.2943C16.0372 9.82069 17.2626 9.57695 18.5001 9.57695C19.7376 9.57695 20.963 9.82069 22.1062 10.2943C23.2495 10.7678 24.2884 11.4619 25.1634 12.337C26.0385 13.212 26.7326 14.2509 27.2061 15.3942C27.6797 16.5375 27.9235 17.7628 27.9235 19.0003C27.9235 20.2378 27.6797 21.4632 27.2061 22.6065C26.7326 23.7498 26.0385 24.7886 25.1634 25.6637C23.3962 27.4309 20.9993 28.4237 18.5001 28.4237C16.0008 28.4237 13.604 27.4309 11.8367 25.6637C10.0695 23.8964 9.0767 21.4996 9.0767 19.0003C9.0767 16.5011 10.0695 14.1042 11.8367 12.337V12.337ZM30.0134 10.9803C30.2303 10.7758 30.4038 10.5298 30.5239 10.2569C30.644 9.9841 30.7081 9.68994 30.7124 9.39187C30.7168 9.09381 30.6613 8.7979 30.5492 8.52167C30.4372 8.24545 30.2708 7.99451 30.06 7.78372C29.8492 7.57294 29.5983 7.40659 29.3221 7.29452C29.0458 7.18245 28.7499 7.12695 28.4519 7.1313C28.1538 7.13564 27.8596 7.19975 27.5868 7.31982C27.3139 7.43989 27.068 7.61348 26.8634 7.83032C26.4656 8.25204 26.2478 8.81219 26.2562 9.39187C26.2647 9.97156 26.4987 10.5251 26.9087 10.9351C27.3186 11.345 27.8722 11.579 28.4519 11.5875C29.0315 11.5959 29.5917 11.3781 30.0134 10.9803V10.9803Z" fill="white"/>
</svg>
