<svg width="37" height="38" viewBox="0 0 37 38" fill="none" xmlns="http://www.w3.org/2000/svg">
<path fill-rule="evenodd" clip-rule="evenodd" d="M0.166749 3.73033C0.166749 2.91788 0.489492 2.13871 1.06398 1.56423C1.63846 0.989739 2.41764 0.666996 3.23008 0.666996H33.7667C34.1694 0.666339 34.5682 0.745101 34.9403 0.898774C35.3125 1.05245 35.6506 1.27801 35.9355 1.56256C36.2204 1.8471 36.4463 2.18504 36.6004 2.55701C36.7544 2.92899 36.8336 3.3277 36.8334 3.73033V34.267C36.8339 34.6697 36.7549 35.0685 36.601 35.4407C36.4472 35.8128 36.2215 36.151 35.9368 36.4358C35.6521 36.7207 35.3141 36.9466 34.942 37.1006C34.5699 37.2547 34.1711 37.3339 33.7684 37.3337H3.23008C2.82766 37.3337 2.42918 37.2544 2.05741 37.1003C1.68564 36.9463 1.34787 36.7205 1.06339 36.4358C0.77891 36.1512 0.553301 35.8133 0.399452 35.4415C0.245603 35.0696 0.16653 34.6711 0.166749 34.2687V3.73033ZM14.6801 14.647H19.6451V17.1403C20.3617 15.707 22.1951 14.417 24.9501 14.417C30.2317 14.417 31.4834 17.272 31.4834 22.5103V32.2137H26.1384V23.7037C26.1384 20.7203 25.4217 19.037 23.6017 19.037C21.0767 19.037 20.0267 20.852 20.0267 23.7037V32.2137H14.6801V14.647ZM5.51342 31.9853H10.8601V14.417H5.51342V31.9837V31.9853ZM11.6251 8.687C11.6352 9.14478 11.5537 9.59997 11.3855 10.0259C11.2173 10.4517 10.9657 10.8397 10.6455 11.167C10.3253 11.4944 9.94291 11.7545 9.52084 11.932C9.09877 12.1096 8.64548 12.201 8.18758 12.201C7.72968 12.201 7.2764 12.1096 6.85432 11.932C6.43225 11.7545 6.0499 11.4944 5.7297 11.167C5.4095 10.8397 5.1579 10.4517 4.98968 10.0259C4.82146 9.59997 4.74 9.14478 4.75008 8.687C4.76987 7.78842 5.14072 6.93331 5.78322 6.30481C6.42573 5.6763 7.28879 5.32436 8.18758 5.32436C9.08638 5.32436 9.94944 5.6763 10.5919 6.30481C11.2344 6.93331 11.6053 7.78842 11.6251 8.687V8.687Z" fill="white"/>
</svg>
